<?xml version="1.0" encoding="UTF-8" standalone="no"?>
<!-- Generator: Adobe Illustrator 21.1.0, SVG Export Plug-In . SVG Version: 6.00 Build 0)  -->

<svg
   xmlns:dc="http://purl.org/dc/elements/1.1/"
   xmlns:cc="http://creativecommons.org/ns#"
   xmlns:rdf="http://www.w3.org/1999/02/22-rdf-syntax-ns#"
   xmlns:svg="http://www.w3.org/2000/svg"
   xmlns="http://www.w3.org/2000/svg"
   xmlns:sodipodi="http://sodipodi.sourceforge.net/DTD/sodipodi-0.dtd"
   xmlns:inkscape="http://www.inkscape.org/namespaces/inkscape"
   version="1.0"
   id="Layer_1"
   x="0px"
   y="0px"
   viewBox="0 0 200 200"
   enable-background="new 0 0 158 110"
   xml:space="preserve"
   sodipodi:docname="Youtube-logo.svg"
   width="200"
   height="200"
   inkscape:version="0.92.3 (2405546, 2018-03-11)"><metadata
   id="metadata3767"><rdf:RDF><cc:Work
       rdf:about=""><dc:format>image/svg+xml</dc:format><dc:type
         rdf:resource="http://purl.org/dc/dcmitype/StillImage" /><dc:title></dc:title></cc:Work></rdf:RDF></metadata><defs
   id="defs3765" /><sodipodi:namedview
   pagecolor="#ffffff"
   bordercolor="#666666"
   borderopacity="1"
   objecttolerance="10"
   gridtolerance="10"
   guidetolerance="10"
   inkscape:pageopacity="0"
   inkscape:pageshadow="2"
   inkscape:window-width="1920"
   inkscape:window-height="1017"
   id="namedview3763"
   showgrid="false"
   inkscape:zoom="2.6805775"
   inkscape:cx="155.23189"
   inkscape:cy="72.658941"
   inkscape:window-x="0"
   inkscape:window-y="30"
   inkscape:window-maximized="1"
   inkscape:current-layer="Layer_1" />
<path
   id="XMLID_142_"
   d="m 175.35355,62.497686 c -1.8,-6.7 -7.1,-12 -13.9,-13.8 -12.3,-3.2 -61.5,-3.2 -61.5,-3.2 0,0 -48.3,-0.2 -60.6,3 -6.8,1.8 -13.3,7.3 -15.1,14 -3.3,12.2 -3,37.5 -3,37.5 0,0 -0.3,25.299994 3,37.499994 1.8,6.7 8.4,12.2 15.1,14 12.3,3.3 60.6,3 60.6,3 0,0 48.3,0.2 60.6,-3 6.8,-1.8 13.1,-7.3 14.9,-14 3.3,-12.1 3.3,-37.499994 3.3,-37.499994 0,0 -0.1,-25.3 -3.4,-37.5 z"
   inkscape:connector-curvature="0"
   style="fill:#000000" />
<polygon
   id="XMLID_824_"
   points="63.9,30.8 63.9,79.2 103.2,55 "
   style="fill:#ffffff"
   transform="translate(20.517967,42.62215)" />
</svg>